<mxfile host="app.diagrams.net" modified="2023-12-15T16:29:12.723Z" agent="Mozilla/5.0 (Macintosh; Intel Mac OS X 10_15_7) AppleWebKit/605.1.15 (KHTML, like Gecko) Version/17.0 Safari/605.1.15" etag="1Y9xS5InUhohInWBAw1_" version="22.1.11" type="google">
  <diagram id="C5RBs43oDa-KdzZeNtuy" name="Page-1">
    <mxGraphModel grid="1" page="1" gridSize="10" guides="1" tooltips="1" connect="1" arrows="1" fold="1" pageScale="1" pageWidth="827" pageHeight="1169" math="0" shadow="0">
      <root>
        <mxCell id="WIyWlLk6GJQsqaUBKTNV-0" />
        <mxCell id="WIyWlLk6GJQsqaUBKTNV-1" parent="WIyWlLk6GJQsqaUBKTNV-0" />
        <mxCell id="Do2g4JZX6xTni7x6aKXa-1" value="Start" style="strokeWidth=2;html=1;shape=mxgraph.flowchart.start_1;whiteSpace=wrap;" vertex="1" parent="WIyWlLk6GJQsqaUBKTNV-1">
          <mxGeometry x="65" y="-180" width="100" height="60" as="geometry" />
        </mxCell>
        <mxCell id="Do2g4JZX6xTni7x6aKXa-6" style="edgeStyle=orthogonalEdgeStyle;rounded=0;orthogonalLoop=1;jettySize=auto;html=1;exitX=0.5;exitY=1;exitDx=0;exitDy=0;exitPerimeter=0;entryX=0;entryY=0.5;entryDx=0;entryDy=0;entryPerimeter=0;" edge="1" parent="WIyWlLk6GJQsqaUBKTNV-1" source="Do2g4JZX6xTni7x6aKXa-5" target="Do2g4JZX6xTni7x6aKXa-10">
          <mxGeometry relative="1" as="geometry">
            <mxPoint x="474" y="570" as="targetPoint" />
            <Array as="points">
              <mxPoint x="460" y="155" />
            </Array>
          </mxGeometry>
        </mxCell>
        <mxCell id="Do2g4JZX6xTni7x6aKXa-7" value="alphabetical order&lt;br&gt;" style="edgeLabel;html=1;align=center;verticalAlign=middle;resizable=0;points=[];" connectable="0" vertex="1" parent="Do2g4JZX6xTni7x6aKXa-6">
          <mxGeometry x="0.2592" y="2" relative="1" as="geometry">
            <mxPoint x="-9" y="-53" as="offset" />
          </mxGeometry>
        </mxCell>
        <mxCell id="Do2g4JZX6xTni7x6aKXa-5" value="Print&amp;nbsp; relevant&lt;br&gt;&amp;nbsp;results in alphabetical order or descending &lt;br&gt;mark order" style="strokeWidth=2;html=1;shape=mxgraph.flowchart.decision;whiteSpace=wrap;" vertex="1" parent="WIyWlLk6GJQsqaUBKTNV-1">
          <mxGeometry x="390" y="-100" width="140" height="130" as="geometry" />
        </mxCell>
        <mxCell id="wrJAvcG1r4LPhfUj58ts-1" style="edgeStyle=orthogonalEdgeStyle;rounded=0;orthogonalLoop=1;jettySize=auto;html=1;entryX=0.5;entryY=0;entryDx=0;entryDy=0;" edge="1" parent="WIyWlLk6GJQsqaUBKTNV-1" source="Do2g4JZX6xTni7x6aKXa-10" target="wrJAvcG1r4LPhfUj58ts-0">
          <mxGeometry relative="1" as="geometry">
            <Array as="points">
              <mxPoint x="635" y="250" />
              <mxPoint x="474" y="250" />
            </Array>
          </mxGeometry>
        </mxCell>
        <mxCell id="wrJAvcG1r4LPhfUj58ts-2" value="Yes" style="edgeLabel;html=1;align=center;verticalAlign=middle;resizable=0;points=[];" connectable="0" vertex="1" parent="wrJAvcG1r4LPhfUj58ts-1">
          <mxGeometry x="-0.5862" y="2" relative="1" as="geometry">
            <mxPoint x="-63" y="-2" as="offset" />
          </mxGeometry>
        </mxCell>
        <mxCell id="Do2g4JZX6xTni7x6aKXa-15" style="edgeStyle=orthogonalEdgeStyle;rounded=0;orthogonalLoop=1;jettySize=auto;html=1;exitX=1;exitY=0.5;exitDx=0;exitDy=0;exitPerimeter=0;entryX=0;entryY=0.5;entryDx=0;entryDy=0;entryPerimeter=0;" edge="1" parent="WIyWlLk6GJQsqaUBKTNV-1" source="Do2g4JZX6xTni7x6aKXa-12" target="Do2g4JZX6xTni7x6aKXa-5">
          <mxGeometry relative="1" as="geometry">
            <mxPoint x="395" y="880" as="targetPoint" />
            <Array as="points">
              <mxPoint x="297" y="605" />
              <mxPoint x="297" y="-35" />
            </Array>
          </mxGeometry>
        </mxCell>
        <mxCell id="Do2g4JZX6xTni7x6aKXa-16" value="Flag students who&lt;br&gt;failed a module" style="edgeLabel;html=1;align=center;verticalAlign=middle;resizable=0;points=[];" connectable="0" vertex="1" parent="Do2g4JZX6xTni7x6aKXa-15">
          <mxGeometry x="-0.5275" relative="1" as="geometry">
            <mxPoint x="-67" y="73" as="offset" />
          </mxGeometry>
        </mxCell>
        <mxCell id="Do2g4JZX6xTni7x6aKXa-12" value="Print all &lt;br&gt;specified results or&lt;br&gt;&amp;nbsp;only students who &lt;br&gt;failed a module" style="strokeWidth=2;html=1;shape=mxgraph.flowchart.decision;whiteSpace=wrap;" vertex="1" parent="WIyWlLk6GJQsqaUBKTNV-1">
          <mxGeometry x="44" y="540" width="130" height="130" as="geometry" />
        </mxCell>
        <mxCell id="Do2g4JZX6xTni7x6aKXa-13" style="edgeStyle=orthogonalEdgeStyle;rounded=0;orthogonalLoop=1;jettySize=auto;html=1;exitX=0.5;exitY=1;exitDx=0;exitDy=0;exitPerimeter=0;entryX=0;entryY=0.5;entryDx=0;entryDy=0;entryPerimeter=0;" edge="1" parent="WIyWlLk6GJQsqaUBKTNV-1" source="Do2g4JZX6xTni7x6aKXa-12" target="Do2g4JZX6xTni7x6aKXa-5">
          <mxGeometry relative="1" as="geometry">
            <Array as="points">
              <mxPoint x="109" y="700" />
              <mxPoint x="390" y="700" />
            </Array>
          </mxGeometry>
        </mxCell>
        <mxCell id="Do2g4JZX6xTni7x6aKXa-14" value="Print all previously &lt;br&gt;specified results" style="edgeLabel;html=1;align=center;verticalAlign=middle;resizable=0;points=[];" connectable="0" vertex="1" parent="Do2g4JZX6xTni7x6aKXa-13">
          <mxGeometry x="-0.4231" y="1" relative="1" as="geometry">
            <mxPoint x="-151" y="1" as="offset" />
          </mxGeometry>
        </mxCell>
        <mxCell id="Do2g4JZX6xTni7x6aKXa-24" style="edgeStyle=orthogonalEdgeStyle;rounded=0;orthogonalLoop=1;jettySize=auto;html=1;exitX=1;exitY=0.5;exitDx=0;exitDy=0;exitPerimeter=0;" edge="1" parent="WIyWlLk6GJQsqaUBKTNV-1" source="Do2g4JZX6xTni7x6aKXa-21" target="Do2g4JZX6xTni7x6aKXa-12">
          <mxGeometry relative="1" as="geometry" />
        </mxCell>
        <mxCell id="Do2g4JZX6xTni7x6aKXa-25" value="Specific year" style="edgeLabel;html=1;align=center;verticalAlign=middle;resizable=0;points=[];" connectable="0" vertex="1" parent="Do2g4JZX6xTni7x6aKXa-24">
          <mxGeometry x="-0.219" y="-1" relative="1" as="geometry">
            <mxPoint as="offset" />
          </mxGeometry>
        </mxCell>
        <mxCell id="Do2g4JZX6xTni7x6aKXa-21" value="Select a &lt;br&gt;graduation year &lt;br&gt;that the data &lt;br&gt;should be &lt;br&gt;from&amp;nbsp;" style="strokeWidth=2;html=1;shape=mxgraph.flowchart.decision;whiteSpace=wrap;" vertex="1" parent="WIyWlLk6GJQsqaUBKTNV-1">
          <mxGeometry x="50" y="360" width="130" height="120" as="geometry" />
        </mxCell>
        <mxCell id="Do2g4JZX6xTni7x6aKXa-22" style="edgeStyle=orthogonalEdgeStyle;rounded=0;orthogonalLoop=1;jettySize=auto;html=1;exitX=0;exitY=0.5;exitDx=0;exitDy=0;exitPerimeter=0;entryX=0.5;entryY=0;entryDx=0;entryDy=0;entryPerimeter=0;" edge="1" parent="WIyWlLk6GJQsqaUBKTNV-1" source="Do2g4JZX6xTni7x6aKXa-21" target="Do2g4JZX6xTni7x6aKXa-12">
          <mxGeometry relative="1" as="geometry" />
        </mxCell>
        <mxCell id="Do2g4JZX6xTni7x6aKXa-23" value="All years" style="edgeLabel;html=1;align=center;verticalAlign=middle;resizable=0;points=[];" connectable="0" vertex="1" parent="Do2g4JZX6xTni7x6aKXa-22">
          <mxGeometry x="-0.2286" y="-2" relative="1" as="geometry">
            <mxPoint as="offset" />
          </mxGeometry>
        </mxCell>
        <mxCell id="Do2g4JZX6xTni7x6aKXa-29" style="edgeStyle=orthogonalEdgeStyle;rounded=0;orthogonalLoop=1;jettySize=auto;html=1;exitX=1;exitY=0.5;exitDx=0;exitDy=0;exitPerimeter=0;" edge="1" parent="WIyWlLk6GJQsqaUBKTNV-1" source="Do2g4JZX6xTni7x6aKXa-28" target="Do2g4JZX6xTni7x6aKXa-21">
          <mxGeometry relative="1" as="geometry">
            <Array as="points">
              <mxPoint x="195" y="270" />
              <mxPoint x="195" y="350" />
              <mxPoint x="115" y="350" />
            </Array>
          </mxGeometry>
        </mxCell>
        <mxCell id="Do2g4JZX6xTni7x6aKXa-30" value="Specific subject" style="edgeLabel;html=1;align=center;verticalAlign=middle;resizable=0;points=[];" connectable="0" vertex="1" parent="Do2g4JZX6xTni7x6aKXa-29">
          <mxGeometry x="-0.3895" y="1" relative="1" as="geometry">
            <mxPoint as="offset" />
          </mxGeometry>
        </mxCell>
        <mxCell id="Do2g4JZX6xTni7x6aKXa-31" style="edgeStyle=orthogonalEdgeStyle;rounded=0;orthogonalLoop=1;jettySize=auto;html=1;exitX=0;exitY=0.5;exitDx=0;exitDy=0;exitPerimeter=0;" edge="1" parent="WIyWlLk6GJQsqaUBKTNV-1" source="Do2g4JZX6xTni7x6aKXa-28" target="Do2g4JZX6xTni7x6aKXa-21">
          <mxGeometry relative="1" as="geometry">
            <Array as="points">
              <mxPoint x="45" y="270" />
              <mxPoint x="45" y="350" />
              <mxPoint x="115" y="350" />
            </Array>
          </mxGeometry>
        </mxCell>
        <mxCell id="Do2g4JZX6xTni7x6aKXa-32" value="All subjects" style="edgeLabel;html=1;align=center;verticalAlign=middle;resizable=0;points=[];" connectable="0" vertex="1" parent="Do2g4JZX6xTni7x6aKXa-31">
          <mxGeometry x="-0.3895" y="-1" relative="1" as="geometry">
            <mxPoint as="offset" />
          </mxGeometry>
        </mxCell>
        <mxCell id="Do2g4JZX6xTni7x6aKXa-28" value="Select a subject&amp;nbsp;&lt;br&gt;to obtain data for" style="strokeWidth=2;html=1;shape=mxgraph.flowchart.decision;whiteSpace=wrap;" vertex="1" parent="WIyWlLk6GJQsqaUBKTNV-1">
          <mxGeometry x="55" y="210" width="120" height="120" as="geometry" />
        </mxCell>
        <mxCell id="Do2g4JZX6xTni7x6aKXa-33" style="edgeStyle=orthogonalEdgeStyle;rounded=0;orthogonalLoop=1;jettySize=auto;html=1;exitX=0.5;exitY=1;exitDx=0;exitDy=0;exitPerimeter=0;" edge="1" parent="WIyWlLk6GJQsqaUBKTNV-1" source="Do2g4JZX6xTni7x6aKXa-1" target="yQuLpzeCjg4D-1BJ8me0-3">
          <mxGeometry relative="1" as="geometry">
            <mxPoint x="254" y="220" as="targetPoint" />
          </mxGeometry>
        </mxCell>
        <mxCell id="wrJAvcG1r4LPhfUj58ts-0" value="Print relevant results in grade format" style="rounded=1;whiteSpace=wrap;html=1;" vertex="1" parent="WIyWlLk6GJQsqaUBKTNV-1">
          <mxGeometry x="414" y="310" width="120" height="60" as="geometry" />
        </mxCell>
        <mxCell id="wrJAvcG1r4LPhfUj58ts-3" value="Print relevant&amp;nbsp;results in mark format" style="rounded=1;whiteSpace=wrap;html=1;" vertex="1" parent="WIyWlLk6GJQsqaUBKTNV-1">
          <mxGeometry x="640" y="280" width="120" height="60" as="geometry" />
        </mxCell>
        <mxCell id="wrJAvcG1r4LPhfUj58ts-4" style="edgeStyle=orthogonalEdgeStyle;rounded=0;orthogonalLoop=1;jettySize=auto;html=1;exitX=0.5;exitY=0;exitDx=0;exitDy=0;entryX=1;entryY=0.5;entryDx=0;entryDy=0;entryPerimeter=0;endArrow=none;endFill=0;startArrow=classic;startFill=1;" edge="1" parent="WIyWlLk6GJQsqaUBKTNV-1" source="wrJAvcG1r4LPhfUj58ts-3" target="Do2g4JZX6xTni7x6aKXa-10">
          <mxGeometry relative="1" as="geometry">
            <Array as="points">
              <mxPoint x="700" y="240" />
              <mxPoint x="700" y="240" />
            </Array>
          </mxGeometry>
        </mxCell>
        <mxCell id="wrJAvcG1r4LPhfUj58ts-5" value="no" style="edgeLabel;html=1;align=center;verticalAlign=middle;resizable=0;points=[];" connectable="0" vertex="1" parent="wrJAvcG1r4LPhfUj58ts-4">
          <mxGeometry x="0.6092" relative="1" as="geometry">
            <mxPoint y="39" as="offset" />
          </mxGeometry>
        </mxCell>
        <mxCell id="yQuLpzeCjg4D-1BJ8me0-0" value="" style="edgeStyle=orthogonalEdgeStyle;rounded=0;orthogonalLoop=1;jettySize=auto;html=1;exitX=1;exitY=0.5;exitDx=0;exitDy=0;exitPerimeter=0;" edge="1" parent="WIyWlLk6GJQsqaUBKTNV-1" source="Do2g4JZX6xTni7x6aKXa-5" target="Do2g4JZX6xTni7x6aKXa-10">
          <mxGeometry relative="1" as="geometry">
            <mxPoint x="534" y="600" as="targetPoint" />
            <Array as="points" />
            <mxPoint x="519" y="280" as="sourcePoint" />
          </mxGeometry>
        </mxCell>
        <mxCell id="yQuLpzeCjg4D-1BJ8me0-2" value="Descending order&lt;br&gt;by mark" style="edgeLabel;html=1;align=center;verticalAlign=middle;resizable=0;points=[];" connectable="0" vertex="1" parent="yQuLpzeCjg4D-1BJ8me0-0">
          <mxGeometry x="0.2588" relative="1" as="geometry">
            <mxPoint y="5" as="offset" />
          </mxGeometry>
        </mxCell>
        <mxCell id="Do2g4JZX6xTni7x6aKXa-10" value="Print the marks&lt;br&gt;&amp;nbsp;of the relevant results&lt;br&gt;&amp;nbsp;in &quot;grade name&quot;&lt;br&gt;format?" style="strokeWidth=2;html=1;shape=mxgraph.flowchart.decision;whiteSpace=wrap;" vertex="1" parent="WIyWlLk6GJQsqaUBKTNV-1">
          <mxGeometry x="570" y="90" width="130" height="130" as="geometry" />
        </mxCell>
        <mxCell id="yQuLpzeCjg4D-1BJ8me0-7" value="" style="edgeStyle=orthogonalEdgeStyle;rounded=0;orthogonalLoop=1;jettySize=auto;html=1;" edge="1" parent="WIyWlLk6GJQsqaUBKTNV-1" source="yQuLpzeCjg4D-1BJ8me0-3" target="yQuLpzeCjg4D-1BJ8me0-6">
          <mxGeometry relative="1" as="geometry" />
        </mxCell>
        <mxCell id="yQuLpzeCjg4D-1BJ8me0-3" value="Read data file" style="rounded=1;whiteSpace=wrap;html=1;absoluteArcSize=1;arcSize=14;strokeWidth=2;" vertex="1" parent="WIyWlLk6GJQsqaUBKTNV-1">
          <mxGeometry x="65" y="-60" width="100" height="40" as="geometry" />
        </mxCell>
        <mxCell id="yQuLpzeCjg4D-1BJ8me0-9" value="" style="edgeStyle=orthogonalEdgeStyle;rounded=0;orthogonalLoop=1;jettySize=auto;html=1;" edge="1" parent="WIyWlLk6GJQsqaUBKTNV-1" source="yQuLpzeCjg4D-1BJ8me0-6" target="yQuLpzeCjg4D-1BJ8me0-8">
          <mxGeometry relative="1" as="geometry" />
        </mxCell>
        <mxCell id="yQuLpzeCjg4D-1BJ8me0-6" value="create student objects with data" style="whiteSpace=wrap;html=1;rounded=1;arcSize=14;strokeWidth=2;" vertex="1" parent="WIyWlLk6GJQsqaUBKTNV-1">
          <mxGeometry x="55" y="20" width="120" height="60" as="geometry" />
        </mxCell>
        <mxCell id="yQuLpzeCjg4D-1BJ8me0-8" value="store student objects within subject objects" style="whiteSpace=wrap;html=1;rounded=1;arcSize=14;strokeWidth=2;" vertex="1" parent="WIyWlLk6GJQsqaUBKTNV-1">
          <mxGeometry x="55" y="120" width="120" height="60" as="geometry" />
        </mxCell>
        <mxCell id="yQuLpzeCjg4D-1BJ8me0-10" style="edgeStyle=orthogonalEdgeStyle;rounded=0;orthogonalLoop=1;jettySize=auto;html=1;exitX=0.5;exitY=1;exitDx=0;exitDy=0;entryX=0.5;entryY=0;entryDx=0;entryDy=0;entryPerimeter=0;" edge="1" parent="WIyWlLk6GJQsqaUBKTNV-1" source="yQuLpzeCjg4D-1BJ8me0-8" target="Do2g4JZX6xTni7x6aKXa-28">
          <mxGeometry relative="1" as="geometry" />
        </mxCell>
        <mxCell id="P-UwUaZtvxO3nje2cW6j-2" style="edgeStyle=orthogonalEdgeStyle;rounded=0;orthogonalLoop=1;jettySize=auto;html=1;exitX=0.5;exitY=1;exitDx=0;exitDy=0;exitPerimeter=0;" edge="1" parent="WIyWlLk6GJQsqaUBKTNV-1" source="P-UwUaZtvxO3nje2cW6j-1">
          <mxGeometry relative="1" as="geometry">
            <mxPoint x="575" y="650" as="targetPoint" />
          </mxGeometry>
        </mxCell>
        <mxCell id="P-UwUaZtvxO3nje2cW6j-3" value="Yes" style="edgeLabel;html=1;align=center;verticalAlign=middle;resizable=0;points=[];" connectable="0" vertex="1" parent="P-UwUaZtvxO3nje2cW6j-2">
          <mxGeometry x="-0.1131" y="1" relative="1" as="geometry">
            <mxPoint as="offset" />
          </mxGeometry>
        </mxCell>
        <mxCell id="P-UwUaZtvxO3nje2cW6j-1" value="Would you like to&amp;nbsp;&lt;br&gt;close the&amp;nbsp;&lt;br&gt;programme?" style="strokeWidth=2;html=1;shape=mxgraph.flowchart.decision;whiteSpace=wrap;" vertex="1" parent="WIyWlLk6GJQsqaUBKTNV-1">
          <mxGeometry x="510" y="410" width="130" height="130" as="geometry" />
        </mxCell>
        <mxCell id="P-UwUaZtvxO3nje2cW6j-7" style="edgeStyle=orthogonalEdgeStyle;rounded=0;orthogonalLoop=1;jettySize=auto;html=1;exitX=1;exitY=0.5;exitDx=0;exitDy=0;exitPerimeter=0;entryX=0.5;entryY=0;entryDx=0;entryDy=0;entryPerimeter=0;" edge="1" parent="WIyWlLk6GJQsqaUBKTNV-1" source="P-UwUaZtvxO3nje2cW6j-1" target="Do2g4JZX6xTni7x6aKXa-28">
          <mxGeometry relative="1" as="geometry">
            <mxPoint x="800" y="240" as="targetPoint" />
            <Array as="points">
              <mxPoint x="640" y="470" />
              <mxPoint x="770" y="470" />
              <mxPoint x="770" y="-170" />
              <mxPoint x="230" y="-170" />
              <mxPoint x="230" y="210" />
            </Array>
          </mxGeometry>
        </mxCell>
        <mxCell id="P-UwUaZtvxO3nje2cW6j-8" value="No" style="edgeLabel;html=1;align=center;verticalAlign=middle;resizable=0;points=[];" connectable="0" vertex="1" parent="P-UwUaZtvxO3nje2cW6j-7">
          <mxGeometry x="-0.9381" y="2" relative="1" as="geometry">
            <mxPoint as="offset" />
          </mxGeometry>
        </mxCell>
        <mxCell id="P-UwUaZtvxO3nje2cW6j-4" value="End" style="strokeWidth=2;html=1;shape=mxgraph.flowchart.terminator;whiteSpace=wrap;" vertex="1" parent="WIyWlLk6GJQsqaUBKTNV-1">
          <mxGeometry x="525" y="650" width="100" height="60" as="geometry" />
        </mxCell>
        <mxCell id="P-UwUaZtvxO3nje2cW6j-5" style="edgeStyle=orthogonalEdgeStyle;rounded=0;orthogonalLoop=1;jettySize=auto;html=1;exitX=0.5;exitY=1;exitDx=0;exitDy=0;entryX=0;entryY=0.5;entryDx=0;entryDy=0;entryPerimeter=0;" edge="1" parent="WIyWlLk6GJQsqaUBKTNV-1" source="wrJAvcG1r4LPhfUj58ts-0" target="P-UwUaZtvxO3nje2cW6j-1">
          <mxGeometry relative="1" as="geometry" />
        </mxCell>
        <mxCell id="P-UwUaZtvxO3nje2cW6j-6" style="edgeStyle=orthogonalEdgeStyle;rounded=0;orthogonalLoop=1;jettySize=auto;html=1;exitX=0.5;exitY=1;exitDx=0;exitDy=0;entryX=0.5;entryY=0;entryDx=0;entryDy=0;entryPerimeter=0;" edge="1" parent="WIyWlLk6GJQsqaUBKTNV-1" source="wrJAvcG1r4LPhfUj58ts-3" target="P-UwUaZtvxO3nje2cW6j-1">
          <mxGeometry relative="1" as="geometry" />
        </mxCell>
      </root>
    </mxGraphModel>
  </diagram>
</mxfile>
